<svg xmlns="http://www.w3.org/2000/svg" xml:space="preserve" width="850.42" height="829.16"><path d="M232.02 826.74h18.79v-68.38h47.76v-15.92H184.25v15.92h47.77zM143.93 742.44h18.8v84.3h-18.8zM807.21 742.84h-68.77v84.17h18.8v-68.26h45.54c17.74 0 28.84 6.53 28.84 26.36V827h18.8v-44.24c-.01-22.44-12.93-39.92-43.21-39.92M671.09 732.39h27.66c3.14 0 5.87-2.74 5.87-6.01 0-3.39-2.74-6.13-5.87-6.13h-27.66c-3.39 0-6.14 2.74-6.14 6.13 0 3.27 2.75 6.01 6.14 6.01M401.15 793.7c26.02-.61 34.57-7.55 34.57-25.28 0-16.06-11.48-25.58-30.92-25.58h-84.69v84.17h18.79v-68.26h66.03c7.44 0 11.36 3.37 11.36 10.05 0 5.87-1.86 11.56-13.97 11.19h-47.49v4.86l57.94 41.89h27.27l-48.17-33.05h9.28zM538.93 741.04c-5.72-.23-11.56-.36-17.37-.36-9.89 0-16.3.36-16.36.36h-.32c-13.67.44-25.32 5-33.68 13.18-8.02 7.85-12.43 18.72-12.43 30.64v.12c0 25.57 18.58 43.18 46.24 43.82 5.73.25 11.57.36 17.38.36 9.88 0 16.3-.35 16.36-.36h.31c13.67-.44 25.32-5 33.69-13.18 8.02-7.83 12.43-18.72 12.43-30.64v-.12c0-25.06-18.59-42.67-46.25-43.82m26.21 43.66c-.06 16.23-10.62 26.76-27.56 27.47h-.38l-.36.02c-1.03.08-5.01.36-13.6.36-5.74 0-11.25-.12-16.36-.37l-.3-.01c-17.13-.44-27.77-10.97-27.77-27.48 0-16.33 10.56-26.91 27.56-27.62h.38l.35-.01c.06-.01 7.13-.36 16.82-.36 5.45 0 7.78.11 12.42.33l.73.03c17.58.82 28.07 11.09 28.07 27.5zM712.19 811.08h-83.78v-18.92h73.47v-15.25h-73.47v-18.16h83.78v-15.91H609.62v84.17h102.57zM623.07 732.39h27.53c3.27 0 6.01-2.74 6.01-6.01 0-3.39-2.74-6.13-6.01-6.13h-27.53c-3.39 0-6.14 2.74-6.14 6.13 0 3.27 2.74 6.01 6.14 6.01M45.51 743.1h-.29c-13.4.42-24.83 4.74-33.04 12.5C4.32 763.05 0 773.37 0 784.68v.12c0 24.26 18.22 40.97 45.33 41.59 7.63.32 30.64.35 40.19.35 12.34 0 24.12-.05 27.61-.12v-16.1c-5.25.06-45.21.12-49.92.12-5.57 0-11.16-.11-16.19-.34-16.62-.4-27.38-10.41-27.38-25.5 0-15.1 10.61-25.26 27.03-25.89h.37l.35-.02c.06 0 6.95-.33 16.48-.33 2.66 0 43.7.05 49.27.14v-15.82c-3.7-.08-9.47-.13-17.17-.13-21.12 0-50.17.34-50.46.35M425.21 0C285.79 0 172.36 140.77 172.36 313.79s113.43 313.8 252.85 313.8 252.86-140.77 252.86-313.8S564.64 0 425.21 0zM218.96 422.4l-.24-.73c-8.38-25.91-10.87-48.61-10.89-48.84l-.03-.32.26-.19 217.15-160.58 217.42 160.77-.03.32c-.03.23-2.51 22.93-10.89 48.84l-.24.73-.62-.46-.01.03L425.2 269.46 218.97 422.43Zm206.25 175.57c-72.42 0-140.22-44.85-182.18-120.21l-.5-.97L425.2 341.71l182.7 135.1-.48.87.01.01c-41.95 75.4-109.75 120.28-182.22 120.28zm0-459.69L202.17 303.71l.03-1.14c2.25-73.39 26.46-142.02 68.15-193.24 41.85-51.4 96.84-79.71 154.86-79.71 58.02 0 113.01 28.31 154.86 79.71 41.7 51.22 65.9 119.85 68.15 193.24l.03 1.14-.92-.68z"/></svg>