<svg xmlns="http://www.w3.org/2000/svg" width="344" height="145pt" viewBox="0 0 258 145"><path d="m46.547 0 25.279 38.841H51.172l-2.813-4.348H23.465l-2.815 4.348H0L25.277 0h21.27" style="fill:none;stroke:#161413;stroke-width:.354;stroke-linecap:butt;stroke-linejoin:miter;stroke-dasharray:none" transform="translate(92.833 103.611)"/><path d="M14.026 141.129a115.436 115.436 0 0 1-.796-13.566c0-63.147 51.192-114.334 114.336-114.334 63.143 0 114.331 51.187 114.331 114.334 0 4.589-.271 9.117-.796 13.566h13.313c.469-4.454.712-8.991.712-13.566C255.126 57.113 198.014 0 127.566 0 57.113 0 0 57.112 0 127.563c0 4.574.242 9.121.713 13.566h13.313" style="fill:#161413;fill-rule:nonzero;stroke:none;stroke-width:1;stroke-linecap:butt;stroke-linejoin:miter;stroke-dasharray:none" transform="translate(1.138 1.323)"/><path d="m14.026 141.129-.595-6.731-.2-6.835.148-5.884.441-5.807.728-5.722 1.005-5.63 1.277-5.532 1.54-5.425 1.798-5.313 2.047-5.192 2.29-5.065 2.525-4.93 2.753-4.788 2.974-4.638 3.188-4.483 3.394-4.319 3.594-4.148 3.786-3.971 3.97-3.786 4.149-3.594 4.32-3.394 4.483-3.187 4.638-2.974 4.788-2.753 4.93-2.525 5.064-2.29 5.193-2.047 5.312-1.797 5.426-1.54 5.531-1.277 5.631-1.006 5.722-.727 5.806-.441 5.884-.149 5.883.149 5.807.441 5.721.727 5.63 1.006 5.531 1.276 5.426 1.541 5.313 1.797 5.191 2.048 5.065 2.289 4.929 2.525 4.788 2.753 4.639 2.974 4.482 3.187 4.32 3.394 4.148 3.594 3.971 3.786 3.785 3.97 3.594 4.149 3.394 4.32 3.188 4.482 2.973 4.638 2.753 4.788 2.526 4.93 2.289 5.065 2.047 5.192 1.798 5.313 1.541 5.425 1.276 5.532 1.006 5.63.726 5.722.442 5.807.149 5.884-.202 6.835-.594 6.731h13.313l.712-13.566-.166-6.565-.494-6.478-.811-6.384-1.121-6.282-1.425-6.171-1.719-6.054-2.006-5.927-2.283-5.793-2.554-5.65-2.818-5.5-3.071-5.343-3.318-5.175-3.557-5.002-3.786-4.818-4.01-4.629-4.224-4.43-4.429-4.224-4.629-4.01-4.819-3.786-5.001-3.557-5.175-3.317-5.342-3.072-5.5-2.817-5.651-2.555-5.792-2.284-5.927-2.006-6.054-1.718-6.171-1.425-6.281-1.121-6.384-.812-6.478-.493L127.566 0l-6.565.165-6.478.493-6.385.812-6.282 1.12-6.171 1.426-6.053 1.718-5.928 2.006-5.793 2.284-5.65 2.555-5.501 2.817-5.342 3.072-5.176 3.317-5 3.557-4.82 3.787-4.629 4.009-4.43 4.224-4.224 4.43-4.01 4.629-3.786 4.818-3.557 5.002-3.318 5.175-3.072 5.343-2.817 5.5-2.555 5.65-2.284 5.793-2.006 5.927-1.718 6.054-1.425 6.171-1.121 6.282-.812 6.384-.493 6.478L0 127.563l.18 6.831.533 6.735h13.313" style="fill:none;stroke:#161413;stroke-width:.354;stroke-linecap:butt;stroke-linejoin:miter;stroke-dasharray:none" transform="translate(1.138 1.323)"/><path d="M119.75 0v.25h-4V.5h-3.25v.25h-2V1h-2v.25h-1.75v.25h-1.5v.25h-1.5V2h-1.5v.25H101v.25h-1.25v.25H98.5V3h-1v.25h-1v.25h-1.25v.25h-1V4h-1v.25h-.75v.25h-1v.25h-.75V5h-1v.25H89v.25h-1v.25h-.75V6h-.75v.25h-.75v.25H85v.25h-.75V7h-.75v.25h-.75v.25h-.5v.25h-.75V8H81v.25h-.75v.25h-.75v.25H79V9h-.75v.25h-.5v.25H77v.25h-.5V10H76v.25h-.75v.25h-.5v.25h-.5V11h-.5v.25h-.5v.25h-.75v.25H72V12h-.5v.25H71v.25h-.5v.25H70V13h-.5v.25H69v.25h-.5v.25H68V14h-.5v.25H67v.25h-.5v.25H66V15h-.5v.25h-.25v.25h-.5v.25h-.5V16h-.5v.25h-.25v.25H63v.25h-.5V17H62v.25h-.25v.25h-.5v.25h-.5V18h-.5v.25H60v.25h-.5v.25h-.25V19h-.5v.25h-.25v.25H58v.25h-.25V20h-.5v.25h-.5v.25h-.25v.25H56V21h-.25v.25h-.5v.25H55v.25h-.5V22h-.25v.25H54v.25h-.5v.25h-.25V23h-.5v.25h-.25v.25h-.25v.25h-.5V24h-.25v.25H51v.25h-.25v.25h-.5V25H50v.25h-.25v.25h-.25v.25H49V26h-.25v.25h-.25v.25h-.25v.25h-.5V27h-.25v.25h-.25v.25h-.5v.25h-.25V28h-.25v.25H46v.25h-.5v.25h-.25V29H45v.25h-.25v.25h-.25v.25h-.25V30h-.5v.25h-.25v.25h-.25v.25H43V31h-.25v.25h-.25v.25h-.25v.25h-.5V32h-.25v.25h-.25v.25H41v.25h-.25V33h-.25v.25h-.25v.25H40v.25h-.25V34h-.25v.25h-.25v.25H39v.25h-.25V35h-.5v.25H38v.25h-.25v.25h-.25V36h-.25v.25H37v.25h-.25v.25h-.25V37h-.25v.25H36v.25h-.25v.25h-.25V38h-.25v.25H35v.5h-.25V39h-.25v.25h-.25v.25H34v.25h-.25V40h-.25v.25h-.25v.25H33v.25h-.25V41h-.25v.25h-.25v.25H32v.25h-.25v.5h-.25v.25h-.25v.25H31V43h-.25v.25h-.25v.25h-.25v.5H30v.25h-.25v.25h-.25v.25h-.25V45H29v.25h-.25v.25h-.25v.5h-.25v.25H28v.25h-.25v.5h-.25v.25h-.25v.25H27v.25h-.25v.5h-.25v.25h-.25v.25H26V49h-.25v.5h-.25v.25h-.25V50H25v.5h-.25v.25h-.25V51h-.25v.5H24v.25h-.25v.5h-.25v.25h-.25v.25H23v.5h-.25v.25h-.25v.5h-.25v.25H22v.25h-.25v.5h-.25v.25h-.25v.5H21V56h-.25v.5h-.25v.5h-.25v.25H20v.5h-.25V58h-.25v.5h-.25v.25H19v.5h-.25v.25h-.25v.5h-.25v.5H18v.25h-.25v.5h-.25v.5h-.25v.5H17v.25h-.25v.5h-.25v.5h-.25v.5H16v.25h-.25v.5h-.25v.5h-.25v.5H15V66h-.25v.5h-.25v.5h-.25v.5H14v.5h-.25v.5h-.25v.5h-.25v.5H13v.5h-.25v.5h-.25v.5h-.25v.5H12v.5h-.25v.75h-.25v.5h-.25v.5H11v.5h-.25V75h-.25v.5h-.25v.5H10v.5h-.25v.75H9.5v.5h-.25v.75H9v.5h-.25v.75H8.5v.5h-.25V81H8v.5h-.25v.75H7.5V83h-.25v.75H7v.75h-.25v.75H6.5V86h-.25v.75H6v.75h-.25v.75H5.5V89h-.25v1H5v.75h-.25v1H4.5v.75h-.25v1H4v1h-.25v1H3.5v1.25h-.25v1H3v1h-.25V100H2.5v1.25h-.25v1.5H2V104h-.25v1.5H1.5v1.75h-.25V109H1v2H.75v2.5H.5v3.25H.25v5.5H0v5h.25v5.5H.5v4h9V134h-.25v-5.25H9v-9.5h.25V116h.25v-3h.25v-2H10v-2h.25v-1.75h.25V106h.25v-1.5H11v-1.25h.25v-1.5h.25v-1h.25V99.5H12v-1h.25v-1h.25v-1.25h.25v-.75H13v-1h.25v-.75h.25v-1h.25V92H14v-1h.25v-.75h.25v-.75h.25v-.75H15V88h.25v-.75h.25v-.75h.25V86H16v-.75h.25v-.75h.25V84h.25v-.75H17v-.5h.25V82h.25v-.75h.25v-.5H18V80h.25v-.5h.25V79h.25v-.5H19V78h.25v-.75h.25v-.5h.25v-.5H20v-.5h.25v-.5h.25v-.75h.25v-.25H21v-.5h.25v-.5h.25v-.5h.25v-.5H22v-.5h.25v-.5h.25v-.5h.25v-.5H23v-.5h.25v-.5h.25V69h.25v-.5H24V68h.25v-.5h.25v-.25h.25v-.5H25v-.5h.25v-.5h.25v-.25h.25V65H26v-.5h.25v-.25h.25v-.5h.25v-.25H27V63h.25v-.25h.25v-.5h.25v-.5H28v-.25h.25V61h.25v-.25h.25v-.5H29V60h.25v-.5h.25v-.25h.25V59H30v-.5h.25v-.25h.25v-.5h.25v-.25H31v-.25h.25v-.5h.25v-.25h.25V56H32v-.25h.25v-.25h.25V55h.25v-.25H33v-.25h.25v-.25h.25v-.5h.25v-.25H34v-.25h.25v-.5h.25v-.25h.25v-.25H35V52h.25v-.5h.25v-.25h.25V51H36v-.25h.25v-.25h.25v-.25h.25v-.5H37v-.25h.25v-.25h.25V49h.25v-.25H38v-.25h.25V48h.25v-.25h.25v-.25H39v-.25h.25V47h.25v-.25h.25v-.25H40v-.25h.25V46h.25v-.25h.25v-.25H41v-.25h.25v-.5h.25v-.25h.25v-.25H42V44h.25v-.25h.25v-.25h.25v-.25H43V43h.25v-.25h.25v-.25h.25v-.25H44V42h.25v-.25h.25v-.25h.25v-.25h.5V41h.25v-.25h.25v-.25H46v-.25h.25V40h.25v-.25h.25v-.25H47v-.25h.25V39h.25v-.25h.25v-.25H48v-.25h.5V38h.25v-.25H49v-.25h.25v-.25h.25V37h.25v-.25H50v-.25h.5v-.25h.25V36H51v-.25h.25v-.25h.25v-.25h.5V35h.25v-.25h.25v-.25h.25v-.25h.5V34h.25v-.25h.25v-.25h.5v-.25h.25V33h.25v-.25H55v-.25h.5v-.25h.25V32H56v-.25h.5v-.25h.25v-.25H57V31h.5v-.25h.25v-.25h.5v-.25h.25V30h.25v-.25h.5v-.25h.25v-.25h.5V29h.25v-.25h.5v-.25H61v-.25h.5V28h.25v-.25h.5v-.25h.25v-.25h.5V27h.5v-.25h.25v-.25h.5v-.25h.25V26h.5v-.25h.25v-.25h.5v-.25h.5V25h.5v-.25H67v-.25h.5v-.25h.5V24h.5v-.25h.25v-.25h.5v-.25h.5V23h.5v-.25h.5v-.25h.5v-.25h.5V22H72v-.25h.5v-.25h.5v-.25h.5V21h.5v-.25h.5v-.25h.5v-.25h.5V20h.75v-.25h.5v-.25h.5v-.25h.5V19h.5v-.25H79v-.25h.5v-.25h.5V18h.75v-.25h.5v-.25H82v-.25h.5V17h.75v-.25h.5v-.25h.75v-.25h.5V16h.75v-.25h.75v-.25h.75v-.25H88V15h.75v-.25h.75v-.25h.75v-.25H91V14h.75v-.25h1v-.25h.75v-.25h1V13h.75v-.25h1v-.25h1v-.25h1V12h1.25v-.25h1v-.25h1v-.25h1.25V11h1.5v-.25h1.5v-.25H107v-.25h1.75V10h2v-.25h1.75V9.5h2.75v-.25h3.25V9h14v.25h3.25v.25h2.5v.25h2V10h2v.25H144v.25h1.25v.25h1.5V11H148v.25h1.25v.25h1.25v.25h1V12h1v.25h1.25v.25h1v.25h.75V13h1v.25h.75v.25h1v.25h.75V14h1v.25h.75v.25h.75v.25h.75V15h.75v.25h.75v.25h.75v.25h.75V16h.5v.25h.75v.25h.5v.25h.75V17h.5v.25h.75v.25h.75v.25h.5V18h.75v.25h.5v.25h.5v.25h.5V19h.5v.25h.75v.25h.5v.25h.5V20h.5v.25h.5v.25h.5v.25h.5V21h.5v.25h.5v.25h.5v.25h.5V22h.5v.25h.5v.25h.5v.25h.5V23h.5v.25h.5v.25h.25v.25h.5V24h.5v.25h.25v.25h.5v.25h.5V25h.5v.25h.25v.25h.5v.25h.5V26h.25v.25h.5v.25h.5v.25h.25V27h.5v.25h.25v.25h.5v.25h.25V28h.5v.25h.25v.25h.5v.25h.5V29h.25v.25h.25v.25h.5v.25h.25V30h.5v.25h.25v.25h.25v.25h.5V31h.25v.25h.5v.25h.25v.25h.25V32h.5v.25h.25v.25h.25v.25h.5V33h.25v.25h.25v.25h.25v.25h.5V34h.25v.25h.25v.25h.25v.25h.5V35h.25v.25h.25v.25h.5v.25h.25V36h.25v.25h.25v.25h.25v.25h.25V37h.25v.25h.5v.25h.25v.25h.25V38h.25v.25h.25v.25h.25v.25h.5V39h.25v.25h.25v.25h.25v.25h.25V40h.25v.25h.25v.25h.25v.25h.25V41h.25v.25h.25v.25h.25v.25h.25V42h.25v.25h.25v.25h.25v.25h.25V43h.25v.25h.25v.25h.25v.25h.25V44h.25v.25h.25v.25h.25v.25h.25V45h.25v.25h.25v.25h.25v.25h.25V46h.25v.25h.25v.25h.25v.25h.25V47h.25v.25h.25v.5h.25V48h.25v.25h.25v.25h.25v.25h.25V49h.25v.5h.25v.25h.25V50h.25v.25h.25v.25h.25v.25h.25V51h.25v.5h.25v.25h.25V52h.25v.25h.25v.5h.25V53h.25v.25h.25v.5h.25V54h.25v.25h.25v.25h.25v.5h.25v.25h.25v.25h.25v.25h.25v.5h.25v.25h.25v.5h.25v.25h.25v.5h.25V58h.25v.25h.25v.5h.25V59h.25v.5h.25v.25h.25V60h.25v.5h.25v.25h.25v.5h.25v.5h.25V62h.25v.5h.25v.25h.25v.5h.25v.25h.25v.5h.25v.25h.25v.5h.25v.5h.25v.25h.25v.5h.25v.5h.25v.5h.25v.25h.25v.5h.25v.5h.25v.5h.25V69h.25v.5h.25v.5h.25v.5h.25v.5h.25v.5h.25v.5h.25v.25h.25v.5h.25v.5h.25v.5h.25v.5h.25v.5h.25v.5h.25V76h.25v.5h.25v.5h.25v.5h.25v.5h.25v.75h.25v.5h.25v.5h.25v.5h.25V81h.25v.5h.25v.75h.25V83h.25v.5h.25v.75h.25v.5h.25v.75h.25v.75h.25V87h.25v.75h.25v.75h.25v.5h.25v.75h.25v.75h.25v1h.25v.75h.25v1h.25V94h.25v1h.25v.75h.25v1h.25V98h.25v1h.25v1h.25v1.25h.25v1h.25v1.5h.25V105h.25v1.5h.25v1.5h.25v2h.25v1.75h.25V114h.25v3.25h.25v5.5h.25v4h-.25V132h-.25v4.75h8.75v-.5h.25v-5.5h.25V118h-.25v-3.25h-.25v-3H250v-2h-.25V108h-.25v-2h-.25v-1.5H249v-1.25h-.25v-1.5h-.25v-1.25h-.25v-1.25H248v-1h-.25V97h-.25v-1h-.25v-1H247v-1.25h-.25V93h-.25v-1h-.25v-.75H246v-1h-.25v-.75h-.25v-1h-.25v-.75H245V87h-.25v-.75h-.25v-.75h-.25v-.75H244V84h-.25v-.75h-.25v-.75h-.25v-.75H243v-.5h-.25v-.75h-.25V80h-.25v-.75H242v-.5h-.25V78h-.25v-.5h-.25v-.75H241v-.5h-.25v-.5h-.25V75h-.25v-.5H240V74h-.25v-.5h-.25V73h-.25v-.75H239v-.5h-.25v-.5h-.25v-.5h-.25v-.5H238v-.5h-.25v-.5h-.25v-.5h-.25v-.5H237v-.5h-.25v-.5h-.25v-.5h-.25v-.5H236v-.5h-.25v-.5h-.25V65h-.25v-.5H235V64h-.25v-.5h-.25v-.25h-.25v-.5H234v-.5h-.25V62h-.25v-.5h-.25V61H233v-.5h-.25v-.25h-.25v-.5h-.25v-.25H232V59h-.25v-.5h-.25v-.25h-.25v-.5H231v-.25h-.25V57h-.25v-.25h-.25v-.5H230v-.5h-.25v-.25h-.25V55h-.25v-.25H229v-.25h-.25V54h-.25v-.25h-.25v-.5H228V53h-.25v-.25h-.25v-.5h-.25V52H227v-.5h-.25v-.25h-.25V51h-.25v-.5H226v-.25h-.25v-.5h-.25v-.25h-.25v-.25H225V49h-.25v-.5h-.25v-.25h-.25V48H224v-.25h-.25v-.5h-.25V47h-.25v-.25H223v-.5h-.25V46h-.25v-.25h-.25v-.25H222v-.25h-.25v-.5h-.25v-.25h-.25v-.25H221V44h-.25v-.25h-.25v-.25h-.25V43H220v-.25h-.25v-.25h-.25v-.25h-.25V42H219v-.25h-.25v-.25h-.25V41h-.25v-.25H218v-.25h-.25v-.25h-.25V40h-.25v-.25H217v-.25h-.25v-.25h-.25V39h-.25v-.25H216v-.25h-.25v-.25h-.25V38h-.25v-.25H215v-.25h-.25v-.25h-.25V37h-.25v-.25H214v-.25h-.25v-.25h-.25V36h-.25v-.25H213v-.25h-.25v-.25h-.25V35h-.25v-.25H212v-.25h-.25v-.25h-.25V34h-.25v-.25H211v-.25h-.25v-.25h-.25V33h-.25v-.25H210v-.25h-.25v-.25h-.5V32H209v-.25h-.25v-.25h-.25v-.25h-.25V31H208v-.25h-.5v-.25h-.25v-.25H207V30h-.25v-.25h-.25v-.25h-.25v-.25H206V29h-.5v-.25h-.25v-.25H205v-.25h-.25V28h-.5v-.25H204v-.25h-.25v-.25h-.25V27h-.5v-.25h-.25v-.25h-.25v-.25h-.25V26h-.5v-.25h-.25v-.25h-.25v-.25h-.5V25h-.25v-.25h-.25v-.25h-.5v-.25h-.25V24h-.25v-.25h-.5v-.25h-.25v-.25h-.5V23h-.25v-.25h-.5v-.25H197v-.25h-.25V22h-.5v-.25H196v-.25h-.5v-.25h-.25V21h-.5v-.25h-.25v-.25h-.5v-.25h-.25V20h-.5v-.25H193v-.25h-.5v-.25h-.5V19h-.25v-.25h-.5v-.25H191v-.25h-.5V18h-.5v-.25h-.25v-.25h-.5v-.25h-.5V17h-.5v-.25H188v-.25h-.5v-.25h-.5V16h-.25v-.25h-.5v-.25h-.5v-.25h-.5V15h-.5v-.25h-.5v-.25h-.5v-.25h-.25V14h-.5v-.25h-.5v-.25h-.5v-.25h-.5V13h-.5v-.25h-.5v-.25h-.5v-.25h-.5V12h-.75v-.25h-.5v-.25h-.5v-.25h-.5V11h-.5v-.25H176v-.25h-.5v-.25h-.5V10h-.5v-.25h-.75V9.5h-.5v-.25h-.75V9h-.5v-.25h-.75V8.5h-.5v-.25H170V8h-.5v-.25h-.75V7.5H168v-.25h-.75V7h-.75v-.25h-.75V6.5H165v-.25h-.75V6h-.75v-.25h-.75V5.5H162v-.25h-1V5h-.75v-.25h-1V4.5h-.75v-.25h-1V4h-.75v-.25h-1.25V3.5h-1v-.25h-1V3h-1.25v-.25h-1V2.5H150v-.25h-1.5V2h-1.25v-.25h-1.5V1.5h-1.5v-.25h-2V1h-2V.75h-2V.5H135V.25h-3.75V0h-11.5Z" style="fill:#858788;fill-rule:nonzero;stroke:none;stroke-width:1;stroke-linecap:butt;stroke-linejoin:miter;stroke-dasharray:none" transform="translate(3.25 3.5)"/><path d="M32.037 13.246 45.282 0h18.785v38.812H44.05v-15.4L32.037 35.423l-12.01-12.011v15.4H0V0h18.794l13.243 13.246" style="fill:#161413;fill-rule:nonzero;stroke:none;stroke-width:1;stroke-linecap:butt;stroke-linejoin:miter;stroke-dasharray:none" transform="translate(25.02 103.64)"/><path d="M32.037 13.246 45.282 0h18.785v38.812H44.05v-15.4L32.037 35.423l-12.01-12.011v15.4H0V0h18.794l13.243 13.246" style="fill:none;stroke:#161413;stroke-width:.354;stroke-linecap:butt;stroke-linejoin:miter;stroke-dasharray:none" transform="translate(25.02 103.64)"/><path d="M0 0v34.5h15.5V16.25h.25v.25H16v.25h.25V17h.25v.25h.25v.25H17v.25h.25V18h.25v.25h.25v.25H18v.25h.25V19h.25v.25h.25v.25H19v.25h.25V20h.25v.25h.25v.25H20v.25h.25V21h.25v.25h.25v.25H21v.25h.25V22h.25v.25h.25v.25H22v.25h.25V23h.25v.25h.25v.25H23v.25h.25V24h.25v.25h.25v.25H24v.25h.25V25h.25v.25h.25v.25H25v.25h.25V26h.25v.25h.25v.25H26v.25h.25V27h.25v.25h.25v.25H27v.25h.25V28h.25v.25h.25v.25H28v.25h.25V29h.25v.25h.25v.25H29v.25h.25V30h.25v.25h.5V30h.25v-.25h.25v-.25h.25v-.25H31V29h.25v-.25h.25v-.25h.25v-.25H32V28h.25v-.25h.25v-.25h.25v-.25H33V27h.25v-.25h.25v-.25h.25v-.25H34V26h.25v-.25h.25v-.25h.25v-.25H35V25h.25v-.25h.25v-.25h.25v-.25H36V24h.25v-.25h.25v-.25h.25v-.25H37V23h.25v-.25h.25v-.25h.25v-.25H38V22h.25v-.25h.25v-.25h.25v-.25H39V21h.25v-.25h.25v-.25h.25v-.25H40V20h.25v-.25h.25v-.25h.25v-.25H41V19h.25v-.25h.25v-.25h.25v-.25H42V18h.25v-.25h.25v-.25h.25v-.25H43V17h.25v-.25h.25v-.25h.25v-.25H44V34.5h15.75V0h-16v.25h-.25V.5h-.25v.25H43V1h-.25v.25h-.25v.25h-.25v.25H42V2h-.25v.25h-.25v.25h-.25v.25H41V3h-.25v.25h-.25v.25h-.25v.25H40V4h-.25v.25h-.25v.25h-.25v.25H39V5h-.25v.25h-.25v.25h-.25v.25H38V6h-.25v.25h-.25v.25h-.25v.25H37V7h-.25v.25h-.25v.25h-.25v.25H36V8h-.25v.25h-.25v.25h-.25v.25H35V9h-.25v.25h-.25v.25h-.25v.25H34V10h-.25v.25h-.25v.25h-.25v.25H33V11h-.25v.25h-.25v.25h-.25v.25H32V12h-.25v.25h-.25v.25h-.25v.25H31V13h-.25v.25h-.25v.25h-.25v.25H30V14h-.5v-.25h-.25v-.25H29v-.25h-.25V13h-.25v-.25h-.25v-.25H28v-.25h-.25V12h-.25v-.25h-.25v-.25H27v-.25h-.25V11h-.25v-.25h-.25v-.25H26v-.25h-.25V10h-.25v-.25h-.25V9.5H25v-.25h-.25V9h-.25v-.25h-.25V8.5H24v-.25h-.25V8h-.25v-.25h-.25V7.5H23v-.25h-.25V7h-.25v-.25h-.25V6.5H22v-.25h-.25V6h-.25v-.25h-.25V5.5H21v-.25h-.25V5h-.25v-.25h-.25V4.5H20v-.25h-.25V4h-.25v-.25h-.25V3.5H19v-.25h-.25V3h-.25v-.25h-.25V2.5H18v-.25h-.25V2h-.25v-.25h-.25V1.5H17v-.25h-.25V1h-.25V.75h-.25V.5H16V.25h-.25V0H0Z" style="fill:#858788;fill-rule:nonzero;stroke:none;stroke-width:1;stroke-linecap:butt;stroke-linejoin:miter;stroke-dasharray:none" transform="translate(27.25 105.75)"/><path d="m46.547 0 25.279 38.841H51.172l-2.813-4.348H23.465l-2.815 4.348H0L25.277 0h21.27Zm-4.775 24.213-5.862-9.059-5.862 9.059h11.724Z" style="fill:#161413;fill-rule:evenodd;stroke:none;stroke-width:1;stroke-linecap:butt;stroke-linejoin:miter;stroke-dasharray:none" transform="translate(92.833 103.611)"/><path d="M11.724 9.059 5.862 0 0 9.059h11.724" style="fill:none;stroke:#161413;stroke-width:.354;stroke-linecap:butt;stroke-linejoin:miter;stroke-dasharray:none" transform="translate(122.881 118.765)"/><path d="M22.25 0v.25H22V.5h-.25V1h-.25v.25h-.25v.5H21V2h-.25v.5h-.25v.25h-.25v.5H20v.5h-.25V4h-.25v.5h-.25v.25H19v.5h-.25v.25h-.25V6h-.25v.25H18v.5h-.25V7h-.25v.5h-.25v.25H17v.5h-.25v.5h-.25V9h-.25v.5H16v.25h-.25v.5h-.25v.25h-.25v.5H15v.25h-.25v.5h-.25V12h-.25v.5H14v.25h-.25v.5h-.25v.25h-.25v.5H13v.5h-.25v.25h-.25v.5h-.25v.25H12v.5h-.25v.25h-.25v.5h-.25V17H11v.5h-.25v.25h-.25v.5h-.25v.25H10v.5h-.25v.5H9.5v.25h-.25v.5H9v.25h-.25v.5H8.5v.25h-.25v.5H8V22h-.25v.5H7.5v.25h-.25v.5H7v.25h-.25v.5H6.5v.5h-.25v.25H6v.5h-.25v.25H5.5v.5h-.25v.25H5v.5h-.25V27H4.5v.5h-.25v.25H4v.5h-.25v.25H3.5v.5h-.25v.25H3v.5h-.25v.5H2.5v.25h-.25v.5H2v.25h-.25v.5H1.5V32h-.25v.5H1v.25H.75v.5H.5v.25H.25v.5H0v.5h15.5v-.25h.25v-.5H16v-.5h.25V33h.25v-.5h.25v-.25H17v-.5h.25v-.25h.25V31h.25v-.25H18v-.5h27.5v.5h.25V31H46v.5h.25v.25h.25v.5h.25v.25H47v.5h.25v.5h.25v.25h.25v.5H48v.25h15.5V34h-.25v-.5H63v-.25h-.25v-.5h-.25v-.25h-.25V32H62v-.25h-.25v-.5h-.25V31h-.25v-.5H61v-.25h-.25v-.5h-.25v-.25h-.25V29H60v-.5h-.25v-.25h-.25v-.5h-.25v-.25H59V27h-.25v-.25h-.25v-.5h-.25V26H58v-.5h-.25v-.25h-.25v-.5h-.25v-.25H57V24h-.25v-.25h-.25v-.5h-.25v-.5H56v-.25h-.25V22h-.25v-.25h-.25v-.5H55V21h-.25v-.5h-.25v-.25h-.25v-.5H54v-.25h-.25V19h-.25v-.25h-.25v-.5H53v-.5h-.25v-.25h-.25V17h-.25v-.25H52v-.5h-.25V16h-.25v-.5h-.25v-.25H51v-.5h-.25v-.25h-.25V14h-.25v-.25H50v-.5h-.25v-.5h-.25v-.25h-.25V12H49v-.25h-.25v-.5h-.25V11h-.25v-.5H48v-.25h-.25v-.5h-.25V9.5h-.25V9H47v-.25h-.25v-.5h-.25V8h-.25v-.5H46V7h-.25v-.25h-.25v-.5h-.25V6H45v-.5h-.25v-.25h-.25v-.5h-.25V4.5H44V4h-.25v-.25h-.25v-.5h-.25V3H43v-.5h-.25V2h-.25v-.25h-.25v-.5H42V1h-.25V.5h-.25V.25h-.25V0h-19Zm9.25 9.5v-.25h.5v.5h.25V10h.25v.5h.25v.25H33v.5h.25v.5h.25V12h.25v.5H34v.25h.25v.5h.25v.25h.25v.5H35v.25h.25v.5h.25V15h.25v.5H36v.5h.25v.25h.25v.5h.25V17H37v.5h.25v.25h.25v.5h.25v.25H38v.5h.25v.25h.25v.5h.25v.5H39v.25h.25v.5h.25v.25h.25v.5H40V22h.25v.5h.25v.25h.25v.5H41v.25h.25v.5h.25v.25H22V24h.25v-.5h.25v-.25h.25v-.5H23v-.25h.25V22h.25v-.25h.25v-.5H24V21h.25v-.5h.25v-.25h.25v-.5H25v-.5h.25V19h.25v-.5h.25v-.25H26v-.5h.25v-.25h.25V17h.25v-.25H27v-.5h.25V16h.25v-.5h.25V15H28v-.25h.25v-.5h.25V14h.25v-.5H29v-.25h.25v-.5h.25v-.25h.25V12H30v-.5h.25v-.25h.25v-.5h.25v-.25H31V10h.25v-.25h.25V9.5Z" style="fill:#b4b6b8;fill-rule:nonzero;stroke:none;stroke-width:1;stroke-linecap:butt;stroke-linejoin:miter;stroke-dasharray:none" transform="translate(97 105.75)"/><path d="M43.742 0h20.02v38.812h-20.02L20.025 21.255v17.557H0V0h19.871l23.871 17.714V0" style="fill:#161413;fill-rule:nonzero;stroke:none;stroke-width:1;stroke-linecap:butt;stroke-linejoin:miter;stroke-dasharray:none" transform="translate(168.259 103.64)"/><path d="M43.742 0h20.02v38.812h-20.02L20.025 21.255v17.557H0V0h19.871l23.871 17.714V0" style="fill:none;stroke:#161413;stroke-width:.354;stroke-linecap:butt;stroke-linejoin:miter;stroke-dasharray:none" transform="translate(168.259 103.64)"/><path d="M0 0v34.5h15.5V15h.5v.25h.25v.25h.25v.25h.5V16h.25v.25h.25v.25h.5v.25h.25V17h.25v.25h.5v.25h.25v.25h.5V18H20v.25h.25v.25h.5v.25H21V19h.25v.25h.5v.25H22v.25h.25V20h.5v.25H23v.25h.25v.25h.5V21H24v.25h.25v.25h.5v.25H25V22h.25v.25h.5v.25H26v.25h.5V23h.25v.25H27v.25h.5v.25h.25V24H28v.25h.5v.25h.25v.25H29V25h.5v.25h.25v.25H30v.25h.5V26h.25v.25H31v.25h.5v.25h.25V27h.5v.25h.25v.25h.25v.25h.5V28h.25v.25h.25v.25h.5v.25h.25V29h.25v.25h.5v.25h.25v.25h.25V30h.5v.25h.25v.25h.25v.25h.5V31h.25v.25h.25v.25h.5v.25h.25V32h.5v.25h.25v.25h.25v.25h.5V33h.25v.25h.25v.25h.5v.25h.25V34h.25v.25h.5v.25h17.25V0h-15.5v19.75h-.5v-.25H43v-.25h-.25V19h-.5v-.25H42v-.25h-.25v-.25h-.5V18H41v-.25h-.25v-.25h-.5v-.25H40V17h-.25v-.25h-.5v-.25H39v-.25h-.25V16h-.5v-.25H38v-.25h-.25v-.25h-.5V15H37v-.25h-.5v-.25h-.25v-.25H36V14h-.5v-.25h-.25v-.25H35v-.25h-.5V13h-.25v-.25H34v-.25h-.5v-.25h-.25V12H33v-.25h-.5v-.25h-.25v-.25H32V11h-.5v-.25h-.25v-.25H31v-.25h-.5V10h-.25v-.25H30V9.5h-.5v-.25h-.25V9h-.5v-.25h-.25V8.5h-.25v-.25h-.5V8h-.25v-.25h-.25V7.5h-.5v-.25h-.25V7h-.25v-.25h-.5V6.5h-.25v-.25h-.25V6h-.5v-.25h-.25V5.5h-.25v-.25h-.5V5h-.25v-.25h-.25V4.5h-.5v-.25h-.25V4h-.25v-.25h-.5V3.5h-.25v-.25H21V3h-.25v-.25h-.25V2.5H20v-.25h-.25V2h-.25v-.25H19V1.5h-.25v-.25h-.25V1H18V.75h-.25V.5h-.25V.25H17V0H0Z" style="fill:#858788;fill-rule:nonzero;stroke:none;stroke-width:1;stroke-linecap:butt;stroke-linejoin:miter;stroke-dasharray:none" transform="translate(170.5 105.75)"/><path d="m0 0 1.275 1.27v34.218L0 36.764V0" style="fill:#161413;fill-rule:nonzero;stroke:none;stroke-width:1;stroke-linecap:butt;stroke-linejoin:miter;stroke-dasharray:none" transform="translate(169.285 104.666)"/><path d="m23.96 0 .688 1.276L2.352 35.545 0 36.819 23.96 0" style="fill:#161413;fill-rule:nonzero;stroke:none;stroke-width:1;stroke-linecap:butt;stroke-linejoin:miter;stroke-dasharray:none" transform="translate(94.7 104.621)"/><path d="M0 1.276 1.274 0h15.434l1.27 1.276H0" style="fill:#161413;fill-rule:nonzero;stroke:none;stroke-width:1;stroke-linecap:butt;stroke-linejoin:miter;stroke-dasharray:none" transform="translate(70.09 140.154)"/><path d="M0 1.7 1.866 0h7.838l1.553 1.704L0 1.7" style="fill:#161413;fill-rule:nonzero;stroke:none;stroke-width:1;stroke-linecap:butt;stroke-linejoin:miter;stroke-dasharray:none" transform="translate(243.385 139.736)"/><path d="M0 1.704 1.554 0h7.834l1.886 1.704H0" style="fill:#161413;fill-rule:nonzero;stroke:none;stroke-width:1;stroke-linecap:butt;stroke-linejoin:miter;stroke-dasharray:none" transform="translate(2.764 139.736)"/><path d="m0 0 1.704 1.699h14.938L17.345 0H0" style="fill:#fff;fill-rule:nonzero;stroke:none;stroke-width:1;stroke-linecap:butt;stroke-linejoin:miter;stroke-dasharray:none" transform="translate(26.043 104.666)"/><path d="M.703 0 0 1.699 14.372 16.07v-2.404L.703 0" style="fill:#fff;fill-rule:evenodd;stroke:none;stroke-width:1;stroke-linecap:butt;stroke-linejoin:miter;stroke-dasharray:none" transform="translate(42.685 104.666)"/><path d="M0 13.666v1.787L14.191 1.27 13.666 0 0 13.666" style="fill:#161413;fill-rule:nonzero;stroke:none;stroke-width:1;stroke-linecap:butt;stroke-linejoin:miter;stroke-dasharray:none" transform="translate(57.057 104.666)"/><path d="m17.345 0-1.701 1.699H.707L0 0h17.345" style="fill:#fff;fill-rule:nonzero;stroke:none;stroke-width:1;stroke-linecap:butt;stroke-linejoin:miter;stroke-dasharray:none" transform="translate(70.723 104.666)"/><path d="M1.701 0 0 1.699v33.364l1.701 1.701V0" style="fill:#fff;fill-rule:nonzero;stroke:none;stroke-width:1;stroke-linecap:butt;stroke-linejoin:miter;stroke-dasharray:none" transform="translate(86.366 104.666)"/><path d="m0 19.922 1.274-1.276V0L0 3.077v16.845" style="fill:#161413;fill-rule:nonzero;stroke:none;stroke-width:1;stroke-linecap:butt;stroke-linejoin:miter;stroke-dasharray:none" transform="translate(70.09 121.508)"/><path d="M0 16.111v-1.803L14.308 0l-1.275 3.077L0 16.111" style="fill:#161413;fill-rule:evenodd;stroke:none;stroke-width:1;stroke-linecap:butt;stroke-linejoin:miter;stroke-dasharray:none" transform="translate(57.057 121.508)"/><path d="M14.74 16.574v-1.803L0 0l1.702 3.54L14.74 16.574" style="fill:#161413;fill-rule:evenodd;stroke:none;stroke-width:1;stroke-linecap:butt;stroke-linejoin:miter;stroke-dasharray:none" transform="translate(42.317 121.045)"/><path d="M1.702 20.385 0 18.684V0l1.702 3.54v16.845" style="fill:#fff;fill-rule:nonzero;stroke:none;stroke-width:1;stroke-linecap:butt;stroke-linejoin:miter;stroke-dasharray:none" transform="translate(42.317 121.045)"/><path d="M17.977 1.276 16.704 0H1.274L0 1.276h17.977" style="fill:#161413;fill-rule:nonzero;stroke:none;stroke-width:1;stroke-linecap:butt;stroke-linejoin:miter;stroke-dasharray:none" transform="translate(26.043 140.154)"/><path d="m0 0 1.274 1.27v34.218L0 36.764V0" style="fill:#161413;fill-rule:nonzero;stroke:none;stroke-width:1;stroke-linecap:butt;stroke-linejoin:miter;stroke-dasharray:none" transform="translate(26.043 104.666)"/><path d="M20.106 1.273 17.762 0H2.343L0 1.273h20.106" style="fill:#fff;fill-rule:nonzero;stroke:none;stroke-width:1;stroke-linecap:butt;stroke-linejoin:miter;stroke-dasharray:none" transform="translate(118.692 128.819)"/><path d="M18.235 1.274 17.543 0H2.352L0 1.274h18.235" style="fill:#161413;fill-rule:nonzero;stroke:none;stroke-width:1;stroke-linecap:butt;stroke-linejoin:miter;stroke-dasharray:none" transform="translate(94.7 140.166)"/><path d="M.692 5.621 0 4.347 2.813 0l.688 1.275L.692 5.621" style="fill:#161413;fill-rule:nonzero;stroke:none;stroke-width:1;stroke-linecap:butt;stroke-linejoin:miter;stroke-dasharray:none" transform="translate(112.243 135.819)"/><path d="M26.687 1.275 27.379 0H0l.688 1.275h25.999" style="fill:#161413;fill-rule:nonzero;stroke:none;stroke-width:1;stroke-linecap:butt;stroke-linejoin:miter;stroke-dasharray:none" transform="translate(115.056 135.819)"/><path d="M0 1.275.692 0l2.812 4.347-.687 1.274L0 1.275" style="fill:#161413;fill-rule:nonzero;stroke:none;stroke-width:1;stroke-linecap:butt;stroke-linejoin:miter;stroke-dasharray:none" transform="translate(141.743 135.819)"/><path d="m24.888 36.819-3.144-1.704L0 1.706.926 0l23.962 36.819" style="fill:#fff;fill-rule:evenodd;stroke:none;stroke-width:1;stroke-linecap:butt;stroke-linejoin:miter;stroke-dasharray:none" transform="translate(137.905 104.621)"/><path d="m0 0 .919 1.706h18.326L20.171 0H0" style="fill:#fff;fill-rule:nonzero;stroke:none;stroke-width:1;stroke-linecap:butt;stroke-linejoin:miter;stroke-dasharray:none" transform="translate(118.66 104.621)"/><path d="m0 0 1.7 1.699h16.244L18.508 0H0" style="fill:#fff;fill-rule:nonzero;stroke:none;stroke-width:1;stroke-linecap:butt;stroke-linejoin:miter;stroke-dasharray:none" transform="translate(169.285 104.666)"/><path d="m25.792 18.716 1.702 3.383L0 1.699.564 0l25.228 18.716" style="fill:#fff;fill-rule:nonzero;stroke:none;stroke-width:1;stroke-linecap:butt;stroke-linejoin:miter;stroke-dasharray:none" transform="translate(187.229 104.666)"/><path d="m0 18.716 1.277 2.53V1.27L0 0v18.716" style="fill:#161413;fill-rule:nonzero;stroke:none;stroke-width:1;stroke-linecap:butt;stroke-linejoin:miter;stroke-dasharray:none" transform="translate(213.021 104.666)"/><path d="m17.977 0-1.7 1.699H1.702L0 0h17.977" style="fill:#fff;fill-rule:nonzero;stroke:none;stroke-width:1;stroke-linecap:butt;stroke-linejoin:miter;stroke-dasharray:none" transform="translate(213.021 104.666)"/><path d="M1.7 0 0 1.699v33.364l1.7 1.701V0" style="fill:#fff;fill-rule:nonzero;stroke:none;stroke-width:1;stroke-linecap:butt;stroke-linejoin:miter;stroke-dasharray:none" transform="translate(229.298 104.666)"/><path d="M0 1.276.418 0H17.39l1.271 1.276H0" style="fill:#161413;fill-rule:nonzero;stroke:none;stroke-width:1;stroke-linecap:butt;stroke-linejoin:miter;stroke-dasharray:none" transform="translate(212.337 140.154)"/><path d="m26.777 21.422.418-1.276L0 0l1.703 2.857 25.074 18.565" style="fill:#161413;fill-rule:evenodd;stroke:none;stroke-width:1;stroke-linecap:butt;stroke-linejoin:miter;stroke-dasharray:none" transform="translate(185.56 120.008)"/><path d="M1.703 21.422 0 19.721V0l1.703 2.857v18.565" style="fill:#fff;fill-rule:nonzero;stroke:none;stroke-width:1;stroke-linecap:butt;stroke-linejoin:miter;stroke-dasharray:none" transform="translate(185.56 120.008)"/><path d="M17.978 1.276 16.702 0H1.275L0 1.276h17.978" style="fill:#161413;fill-rule:nonzero;stroke:none;stroke-width:1;stroke-linecap:butt;stroke-linejoin:miter;stroke-dasharray:none" transform="translate(169.285 140.154)"/><path d="M120.25 0v.25h-3.5V.5h-3.25v.25h-2V1h-1.75v.25h-2v.25h-1.5v.25h-1.5V2h-1.5v.25H102v.25h-1.25v.25H99.5V3h-1v.25h-1v.25h-1.25v.25h-1V4h-1v.25h-.75v.25h-1v.25h-.75V5h-1v.25H90v.25h-1v.25h-.75V6h-.75v.25h-.75v.25H86v.25h-.75V7h-.75v.25h-.75v.25H83v.25h-.5V8h-.75v.25h-.5v.25h-.75v.25H80V9h-.75v.25h-.5v.25H78v.25h-.5V10h-.75v.25h-.5v.25h-.5v.25h-.5V11h-.75v.25H74v.25h-.5v.25H73V12h-.5v.25h-.75v.25h-.5v.25h-.5V13h-.25v.25H70v.25h-.5v.25H69V14h-.5v.25H68v.25h-.5v.25H67V15h-.5v.25H66v.25h-.5v.25h-.25V16h-.5v.25h-.5v.25h-.5v.25h-.25V17H63v.25h-.5v.25H62v.25h-.25V18h-.5v.25h-.5v.25h-.25v.25H60V19h-.25v.25h-.5v.25h-.5v.25h-.25V20H58v.25h-.25v.25h-.5v.25H57V21h-.5v.25h-.25v.25h-.5v.25h-.25V22H55v.25h-.25v.25h-.5v.25H54V23h-.25v.25h-.5v.25H53v.25h-.5V24h-.25v.25H52v.25h-.5v.25h-.25V25h-.5v.25h-.25v.25h-.25v.25H50V26h-.5v.25h-.25v.25H49v.25h-.5V27h-.25v.25H48v.25h-.25v.25h-.5V28H47v.25h-.25v.25h-.25v.25H46V29h-.25v.25h-.25v.25h-.25v.25H45V30h-.5v.25h-.25v.25H44v.25h-.25V31h-.25v.25h-.25v.25H43v.25h-.5V32h-.25v.25H42v.25h-.25v.25h-.25V33h-.25v.25H41v.25h-.25v.25h-.25V34h-.25v.25h-.5v.25h-.25v.25h-.25V35H39v.25h-.25v.25h-.25v.25h-.25V36H38v.25h-.25v.25h-.25v.25h-.25V37H37v.25h-.25v.25h-.25v.25h-.25V38H36v.25h-.25v.25h-.25v.25h-.25V39H35v.25h-.25v.25h-.25v.5h-.25v.25H34v.25h-.25v.25h-.25V41h-.25v.25H33v.25h-.25v.25h-.25V42h-.25v.25H32v.25h-.25v.5h-.25v.25h-.25v.25H31v.25h-.25V44h-.25v.25h-.25v.5H30V45h-.25v.25h-.25v.25h-.25v.25H29V46h-.25v.5h-.25v.25h-.25V47H28v.25h-.25v.5h-.25V48h-.25v.25H27v.25h-.25v.5h-.25v.25h-.25v.25H26v.5h-.25v.25h-.25v.25h-.25v.25H25v.5h-.25v.25h-.25v.5h-.25v.25H24v.25h-.25v.5h-.25v.25h-.25v.5H23V54h-.25v.25h-.25v.5h-.25V55H22v.5h-.25v.25h-.25v.5h-.25v.25H21v.5h-.25v.25h-.25v.5h-.25V58H20v.5h-.25v.5h-.25v.25h-.25v.5H19V60h-.25v.5h-.25v.25h-.25v.5H18v.5h-.25v.5h-.25v.25h-.25v.5H17v.5h-.25v.5h-.25v.25h-.25v.5H16v.5h-.25v.5h-.25V66h-.25v.5H15v.5h-.25v.5h-.25v.5h-.25v.5H14v.5h-.25v.5h-.25v.5h-.25v.5H13v.5h-.25v.5h-.25v.5h-.25v.5H12v.5h-.25v.5h-.25v.75h-.25v.5H11v.5h-.25v.5h-.25v.5h-.25V77H10v.5h-.25v.75H9.5v.5h-.25v.75H9v.5h-.25v.75H8.5v.5h-.25V82H8v.5h-.25v.75H7.5V84h-.25v.75H7v.75h-.25v.75H6.5V87h-.25v.75H6v.75h-.25v.75H5.5V90h-.25v1H5v.75h-.25v1H4.5v.75h-.25v1H4v1h-.25v1H3.5v1.25h-.25v1H3v1h-.25V101H2.5v1.25h-.25v1.5H2V105h-.25v1.5H1.5v1.75h-.25V110H1v2H.75v2.25H.5v3.25H.25v5.25H0v6h.25V134H.5v5h.25v.25H1V139h.25v-.25h.25v-.25h.25v-.25H2V138h.25v-.25h.25v-2h-.25V130H2v-9h.25v-3.75h.25V114h.25v-2H3v-2h.25v-2h.25v-1.5h.25v-1.25H4v-1.5h.25v-1.25h.25V101h.25v-1H5v-1h.25v-1.25h.25v-1h.25v-1H6v-1h.25V94h.25v-1h.25v-.75H7v-1h.25v-.75h.25v-1h.25v-.75H8V88h.25v-.75h.25v-.75h.25v-.75H9V85h.25v-.75h.25v-.5h.25V83H10v-.5h.25v-.75h.25V81h.25v-.5H11v-.75h.25v-.5h.25v-.75h.25V78H12v-.5h.25v-.75h.25v-.5h.25v-.5H13v-.5h.25v-.5h.25V74h.25v-.5H14V73h.25v-.5h.25V72h.25v-.5H15V71h.25v-.5h.25V70h.25v-.5H16V69h.25v-.5h.25V68h.25v-.5H17V67h.25v-.25h.25v-.5h.25v-.5H18v-.5h.25V65h.25v-.5h.25V64H19v-.25h.25v-.5h.25v-.5h.25v-.5H20V62h.25v-.5h.25V61h.25v-.25H21v-.5h.25V60h.25v-.5h.25v-.25H22v-.5h.25v-.25h.25V58h.25v-.5H23v-.25h.25v-.5h.25v-.25h.25v-.25H24v-.5h.25v-.25h.25V55h.25v-.25H25v-.25h.25V54h.25v-.25h.25v-.5H26V53h.25v-.25h.25v-.5h.25V52H27v-.5h.25v-.25h.25V51h.25v-.25H28v-.5h.25V50h.25v-.25h.25v-.25H29V49h.25v-.25h.25v-.25h.25V48H30v-.25h.25v-.25h.25v-.25h.25V47H31v-.5h.25v-.25h.25V46h.25v-.25H32v-.25h.25v-.25h.25v-.5h.25v-.25H33v-.25h.25V44h.25v-.25h.25v-.25H34v-.25h.25v-.5h.25v-.25h.25v-.25H35V42h.25v-.25h.25v-.25h.25v-.25H36V41h.25v-.25h.25v-.25h.25v-.25H37V40h.25v-.25h.25v-.25h.25v-.25H38V39h.25v-.25h.25v-.25h.25v-.25H39V38h.25v-.25h.25v-.25h.25v-.25H40V37h.25v-.25h.25v-.25h.25v-.25H41V36h.25v-.25h.25v-.25h.25v-.25H42V35h.25v-.25h.25v-.25h.25v-.25h.5V34h.25v-.25h.25v-.25H44v-.25h.25V33h.25v-.25h.25v-.25h.5v-.25h.25V32h.25v-.25H46v-.25h.25v-.25h.25V31h.5v-.25h.25v-.25h.25v-.25h.25V30H48v-.25h.5v-.25h.25v-.25H49V29h.5v-.25h.25v-.25H50v-.25h.25V28h.5v-.25H51v-.25h.25v-.25h.25V27h.5v-.25h.25v-.25h.25v-.25h.5V26h.25v-.25h.5v-.25H54v-.25h.25V25h.5v-.25H55v-.25h.5v-.25h.25V24H56v-.25h.5v-.25h.25v-.25h.5V23h.25v-.25h.5v-.25h.25v-.25h.5V22h.5v-.25h.25v-.25h.5v-.25h.25V21h.5v-.25H61v-.25h.5v-.25h.25V20h.5v-.25h.5v-.25h.5v-.25h.25V19h.5v-.25h.5v-.25h.5v-.25h.25V18h.5v-.25h.5v-.25h.5v-.25H67V17h.5v-.25h.5v-.25h.5v-.25h.5V16h.5v-.25h.5v-.25h.5v-.25h.5V15h.5v-.25h.5v-.25h.5v-.25h.5V14h.5v-.25h.5v-.25h.5v-.25h.75V13h.5v-.25h.5v-.25h.5v-.25h.5V12H78v-.25h.5v-.25h.5v-.25h.75V11h.75v-.25h.5v-.25h.75v-.25h.5V10H83v-.25h.5V9.5h.75v-.25H85V9h.75v-.25h.75V8.5h.75v-.25H88V8h.75v-.25h.75V7.5h.75v-.25H91V7h1v-.25h.75V6.5h1v-.25h1V6h.75v-.25h1V5.5h1.25v-.25h1V5h1v-.25H101V4.5h1v-.25h1.5V4h1.5v-.25h1.25V3.5h1.5v-.25h1.75V3h2v-.25h2V2.5h3v-.25h3.25V2h14v.25H137v.25h3v.25h1.75V3h2v.25h2v.25h1.5v.25h1.25V4h1.5v.25h1.25v.25h1.25v.25h1V5h1.25v.25h1v.25h1v.25H158V6h.75v.25h1v.25h.75v.25h1V7h.75v.25h1v.25h.75v.25h.75V8h.75v.25h.75v.25h.75v.25h.75V9h.75v.25h.75v.25h.5v.25h.75V10h.5v.25h.75v.25h.75v.25h.5V11h.75v.25h.5v.25h.75v.25h.5V12h.5v.25h.5v.25h.75v.25h.5V13h.5v.25h.5v.25h.75v.25h.5V14h.5v.25h.5v.25h.5v.25h.5V15h.5v.25h.5v.25h.5v.25h.5V16h.5v.25h.5v.25h.5v.25h.5V17h.25v.25h.5v.25h.5v.25h.5V18h.25v.25h.5v.25h.5v.25h.5V19h.25v.25h.5v.25h.5v.25h.25V20h.5v.25h.5v.25h.25v.25h.5V21h.25v.25h.5v.25h.25v.25h.5V22h.5v.25h.25v.25h.5v.25h.25V23h.5v.25h.25v.25h.5v.25h.25V24h.5v.25h.25v.25h.25v.25h.5V25h.25v.25h.5v.25h.25v.25h.25V26h.5v.25h.25v.25h.5v.25h.25V27h.25v.25h.25v.25h.5v.25h.25V28h.25v.25h.5v.25h.25v.25h.25V29h.25v.25h.5v.25h.25v.25h.25V30h.25v.25h.5v.25h.25v.25h.25V31h.25v.25h.25v.25h.5v.25h.25V32h.25v.25h.25v.25h.25v.25h.25V33h.25v.25h.5v.25h.25v.25h.25V34h.25v.25h.25v.25h.25v.25h.25V35h.25v.25h.25v.25h.25v.25h.5V36h.25v.25h.25v.25h.25v.25h.25V37h.25v.25h.25v.25h.25v.25h.25V38h.25v.25h.25v.25h.25v.25h.25V39h.25v.25h.25v.25h.25v.25h.25V40h.25v.25h.25v.25h.25v.25h.25V41h.25v.5h.25v.25h.25V42h.25v.25h.25v.25h.25v.25h.25V43h.25v.25h.25v.25h.25v.25h.25V44h.25v.5h.25v.25h.25V45h.25v.25h.25v.25h.25v.25h.25v.5h.25v.25h.25v.25h.25V47h.25v.25h.25v.25h.25v.5h.25v.25h.25v.25h.25v.5h.25v.25h.25v.25h.25v.25h.25v.5h.25v.25h.25v.25h.25V51h.25v.5h.25v.25h.25V52h.25v.5h.25v.25h.25V53h.25v.5h.25v.25h.25v.5h.25v.25h.25v.25h.25v.5h.25v.25h.25v.5h.25v.25h.25v.5h.25V57h.25v.5h.25v.25h.25v.5h.25v.25h.25v.5h.25v.25h.25v.5h.25V60h.25v.5h.25v.5h.25v.25h.25v.5h.25V62h.25v.5h.25v.5h.25v.25h.25v.5h.25v.5h.25v.5h.25V65h.25v.5h.25v.5h.25v.5h.25v.25h.25v.5h.25v.5h.25v.5h.25v.5h.25v.5h.25v.5h.25v.5h.25v.5h.25v.5h.25v.5h.25v.5h.25v.5h.25v.5h.25v.5h.25v.5h.25v.5h.25v.75h.25v.5h.25v.5h.25v.5h.25v.75h.25v.5h.25v.5h.25v.75h.25v.5h.25v.75h.25v.5h.25V82h.25v.75h.25v.5h.25V84h.25v.75h.25v.75h.25v.5h.25v.75h.25v.75h.25v.75h.25V89h.25v.75h.25v1h.25v.75h.25v1h.25v.75h.25v1h.25v1h.25V96h.25v1.25h.25v1h.25v1h.25v1.25h.25v1h.25v1.5h.25v1.25h.25v1.5h.25V107h.25v1.75h.25v2h.25v2h.25v2.5h.25v3.25h.25v6.25h.25v3h-.25v5.75H251v4.25h.25v.25h.25v.25h.25v.25h.25v.5h.25v.25h.5V137h.25v-5h.25v-5.25h.25v-.25h-.25V119H253v-3.5h-.25v-2.75h-.25v-2h-.25V109H252v-2h-.25v-1.5h-.25v-1.25h-.25v-1.5H251v-1.25h-.25v-1.25h-.25v-1h-.25V98H250v-1h-.25v-1h-.25v-1.25h-.25V94H249v-1h-.25v-.75h-.25v-1h-.25v-.75H248v-1h-.25v-.75h-.25V88h-.25v-.75H247v-.75h-.25v-.75h-.25V85h-.25v-.75H246v-.75h-.25v-.75h-.25v-.5h-.25v-.75H245V81h-.25v-.75h-.25v-.5h-.25V79H244v-.5h-.25v-.75h-.25v-.5h-.25v-.75H243V76h-.25v-.5h-.25V75h-.25v-.75H242v-.5h-.25v-.5h-.25v-.5h-.25v-.5H241v-.75h-.25V71h-.25v-.25h-.25v-.5H240v-.5h-.25v-.5h-.25v-.5h-.25v-.5H239v-.5h-.25v-.5h-.25v-.5h-.25v-.5H238v-.5h-.25v-.5h-.25V65h-.25v-.5H237V64h-.25v-.5h-.25v-.25h-.25v-.5H236v-.5h-.25V62h-.25v-.5h-.25V61H235v-.5h-.25v-.25h-.25v-.5h-.25v-.25H234V59h-.25v-.25h-.25v-.5h-.25V58H233v-.5h-.25V57h-.25v-.25h-.25v-.5H232V56h-.25v-.5h-.25v-.25h-.25v-.5H231v-.25h-.25v-.25h-.25v-.5h-.25v-.25H230V53h-.25v-.25h-.25v-.25h-.25V52H229v-.25h-.25v-.5h-.25V51h-.25v-.25H228v-.5h-.25V50h-.25v-.25h-.25v-.25H227V49h-.25v-.25h-.25v-.25h-.25V48H226v-.25h-.25v-.25h-.25v-.25h-.25v-.5H225v-.25h-.25v-.25h-.25V46h-.25v-.5H224v-.25h-.25V45h-.25v-.25h-.25v-.25H223v-.25h-.25v-.5h-.25v-.25h-.25v-.25H222V43h-.25v-.25h-.25v-.25h-.25v-.25H221v-.5h-.25v-.25h-.25v-.25h-.25V41H220v-.25h-.25v-.25h-.25v-.25h-.25V40H219v-.25h-.25v-.25h-.25v-.25h-.25V39H218v-.25h-.25v-.25h-.25v-.25h-.25V38H217v-.5h-.25v-.25h-.25V37h-.25v-.25H216v-.25h-.25v-.25h-.5V36H215v-.25h-.25v-.25h-.25v-.25h-.25V35H214v-.25h-.25v-.25h-.25v-.25h-.25V34H213v-.25h-.25v-.25h-.25v-.25h-.25V33H212v-.25h-.25v-.25h-.25v-.25h-.5V32h-.25v-.25h-.25v-.25h-.25v-.25H210V31h-.25v-.25h-.5v-.25H209v-.25h-.25V30h-.25v-.25h-.25v-.25H208v-.25h-.25V29h-.5v-.25H207v-.25h-.25v-.25h-.25V28h-.5v-.25h-.25v-.25h-.25v-.25h-.5V27h-.25v-.25h-.25v-.25h-.25v-.25h-.5V26h-.25v-.25h-.25v-.25H203v-.25h-.5V25h-.25v-.25h-.5v-.25h-.25v-.25h-.25V24h-.5v-.25h-.25v-.25h-.5v-.25h-.25V23h-.25v-.25h-.5v-.25h-.25v-.25h-.5V22H198v-.25h-.25v-.25h-.5v-.25H197V21h-.5v-.25h-.5v-.25h-.25v-.25h-.5V20H195v-.25h-.5v-.25h-.25v-.25h-.5V19h-.5v-.25H193v-.25h-.5v-.25h-.25V18h-.5v-.25h-.5v-.25h-.5v-.25h-.25V17h-.5v-.25h-.5v-.25h-.25v-.25h-.5V16h-.5v-.25h-.5v-.25h-.25v-.25h-.5V15h-.5v-.25h-.5v-.25h-.5v-.25h-.5V14h-.5v-.25h-.5v-.25h-.5v-.25h-.5V13h-.5v-.25h-.5v-.25h-.5v-.25h-.5V12h-.5v-.25h-.5v-.25h-.75v-.25h-.5V11h-.5v-.25h-.5v-.25H177v-.25h-.5V10h-.5v-.25h-.75V9.5h-.5v-.25H174V9h-.5v-.25h-.75V8.5h-.5v-.25h-.75V8h-.5v-.25h-.75V7.5h-.75v-.25h-.75V7H168v-.25h-.75V6.5h-.75v-.25h-.75V6H165v-.25h-.75V5.5h-.75v-.25h-1V5h-.75v-.25h-1V4.5H160v-.25h-1V4h-.75v-.25H157V3.5h-1v-.25h-1V3h-1.25v-.25h-1V2.5h-1.25v-.25H150V2h-1.25v-.25h-1.5V1.5h-1.5v-.25h-2V1h-2V.75h-2V.5h-3.25V.25h-3.25V0h-13Z" style="fill:#fff;fill-rule:nonzero;stroke:none;stroke-width:1;stroke-linecap:butt;stroke-linejoin:miter;stroke-dasharray:none" transform="translate(2 2.25)"/><path d="M111 0v.25h-3.25V.5h-3v.25h-2V1h-2v.25H99v.25h-1.5v.25H96V2h-1.25v.25h-1.5v.25h-1v.25h-1V3H90v.25h-1v.25h-1v.25h-1V4h-.75v.25h-1v.25h-.75v.25h-1V5h-.75v.25h-1v.25H81v.25h-.75V6h-.75v.25h-.75v.25h-.5v.25h-.75V7h-.75v.25H76v.25h-.5v.25h-.75V8h-.5v.25h-.75v.25H73v.25h-.75V9h-.75v.25H71v.25h-.5v.25H70V10h-.5v.25h-.75v.25h-.5v.25h-.5V11h-.5v.25h-.75v.25H66v.25h-.5V12H65v.25h-.25v.25h-.5v.25h-.5V13h-.5v.25h-.5v.25h-.5v.25h-.5V14h-.5v.25h-.5v.25h-.5v.25H60V15h-.5v.25H59v.25h-.5v.25h-.25V16h-.5v.25h-.5v.25H57v.25h-.5V17H56v.25h-.25v.25h-.5v.25H55V18h-.5v.25H54v.25h-.25v.25h-.5V19H53v.25h-.5v.25h-.25v.25h-.5V20h-.25v.25H51v.25h-.25v.25h-.5V21H50v.25h-.25v.25h-.5v.25H49V22h-.5v.25h-.25v.25H48v.25h-.5V23h-.25v.25h-.5v.25h-.25v.25h-.25V24H46v.25h-.5v.25h-.25v.25H45V25h-.5v.25h-.25v.25H44v.25h-.25V26h-.5v.25H43v.25h-.25v.25h-.25V27H42v.25h-.25v.25h-.25v.25h-.25V28H41v.25h-.25v.25h-.25v.25H40V29h-.25v.25h-.25v.25h-.25v.25H39V30h-.25v.25h-.5v.25H38v.25h-.25V31h-.25v.25h-.25v.25H37v.25h-.25V32h-.25v.25h-.25v.25H36v.25h-.25V33h-.25v.25h-.25v.25H35v.25h-.25V34h-.25v.25h-.25v.25H34v.25h-.25V35h-.25v.25h-.25v.25H33v.25h-.25V36h-.25v.25h-.25v.25H32v.25h-.25V37h-.25v.25h-.25v.25H31v.25h-.25V38h-.25v.5h-.25v.25H30V39h-.25v.25h-.25v.25h-.25v.25H29V40h-.25v.5h-.25v.25h-.25V41H28v.25h-.25v.25h-.25v.25h-.25v.5H27v.25h-.25v.25h-.25V43h-.25v.25H26v.5h-.25V44h-.25v.25h-.25v.5H25V45h-.25v.25h-.25v.25h-.25v.5H24v.25h-.25v.25h-.25v.25h-.25v.5H23v.25h-.25v.5h-.25v.25h-.25v.25H22v.5h-.25v.25h-.25v.5h-.25V50H21v.25h-.25v.5h-.25V51h-.25v.5H20v.25h-.25v.5h-.25v.25h-.25v.5H19v.25h-.25v.5h-.25v.5h-.25v.25H18v.5h-.25v.25h-.25v.5h-.25V56H17v.5h-.25v.5h-.25v.25h-.25v.5H16v.5h-.25v.5h-.25V59h-.25v.5H15v.5h-.25v.5h-.25v.25h-.25v.5H14v.5h-.25v.5h-.25v.5h-.25v.5H13v.5h-.25v.5h-.25v.5h-.25v.5H12v.5h-.25v.5h-.25v.5h-.25v.5H11v.5h-.25v.5h-.25V69h-.25v.5H10v.5h-.25v.5H9.5v.5h-.25v.75H9v.5h-.25V73H8.5v.5h-.25v.75H8v.5h-.25v.75H7.5v.75h-.25v.5H7v.75h-.25v.75H6.5V79h-.25v.75H6v.75h-.25v.75H5.5V82h-.25v.75H5v1h-.25v.75H4.5v1h-.25v.75H4v1h-.25v1H3.5v1h-.25v1H3v1.25h-.25v1H2.5v1h-.25V95H2v1.5h-.25v1.25H1.5v1.5h-.25v2H1V103H.75v2H.5v3.5H.25v4.5H0v6.5h.25v5.25H.5v3.5h.25v.25H1v.25h.25v.25h.5v.25H2v.25h.25v.25h.5V129H2.5v-4.75h-.25v-4.5H2v-8.25h.25V108h.25v-3h.25v-2H3v-1.75h.25v-2h.25V98h.25v-1.5H4V95h.25v-1.25h.25v-1h.25V91.5H5v-1h.25v-1h.25v-1h.25v-1H6v-1h.25v-.75h.25v-1h.25V84H7v-1h.25v-.75h.25v-.75h.25v-.75H8V80h.25v-.5h.25v-.75h.25V78H9v-.75h.25v-.75h.25V76h.25v-.75H10v-.5h.25V74h.25v-.5h.25v-.75H11v-.5h.25v-.5h.25V71h.25v-.5H12V70h.25v-.5h.25v-.75h.25v-.5H13v-.5h.25v-.5h.25v-.5h.25v-.5H14v-.5h.25v-.5h.25v-.5h.25v-.5H15v-.5h.25v-.5h.25v-.5h.25v-.5H16V62h.25v-.5h.25V61h.25v-.5H17v-.25h.25v-.5h.25v-.5h.25v-.5H18v-.25h.25V58h.25v-.5h.25v-.25H19v-.5h.25v-.5h.25V56h.25v-.5H20v-.25h.25v-.5h.25v-.25h.25V54H21v-.25h.25v-.5h.25v-.5h.25v-.25H22v-.25h.25v-.5h.25v-.25h.25V51H23v-.25h.25v-.25h.25V50h.25v-.25H24v-.5h.25V49h.25v-.25h.25v-.5H25V48h.25v-.25h.25v-.5h.25V47H26v-.25h.25v-.5h.25V46h.25v-.25H27v-.25h.25V45h.25v-.25h.25v-.25H28v-.25h.25v-.5h.25v-.25h.25v-.25H29V43h.25v-.25h.25v-.25h.25V42H30v-.25h.25v-.25h.25v-.25h.25V41H31v-.25h.25v-.5h.25V40h.25v-.25H32v-.25h.25v-.25h.25V39h.25v-.25H33v-.25h.25v-.25h.25V38h.25v-.25H34v-.25h.25v-.25h.25V37h.25v-.25H35v-.5h.25V36h.25v-.25h.25v-.25H36v-.25h.25V35h.5v-.25H37v-.25h.25v-.25h.25V34h.25v-.25H38v-.25h.25v-.25h.25V33h.25v-.25H39v-.25h.25v-.25h.25V32h.25v-.25H40v-.25h.25v-.25h.5V31H41v-.25h.25v-.25h.25v-.25h.25V30H42v-.25h.25v-.25h.5v-.25H43V29h.25v-.25h.25v-.25h.25v-.25H44V28h.5v-.25h.25v-.25H45v-.25h.5V27h.25v-.25H46v-.25h.25v-.25h.5V26H47v-.25h.25v-.25h.25v-.25h.5V25h.25v-.25h.25v-.25h.5v-.25h.25V24h.5v-.25H50v-.25h.25v-.25h.5V23H51v-.25h.5v-.25h.25v-.25H52V22h.5v-.25h.25v-.25h.5v-.25h.25V21h.5v-.25h.5v-.25h.25v-.25h.5V20h.25v-.25h.5v-.25h.25v-.25h.5V19H57v-.25h.5v-.25h.5v-.25h.25V18h.5v-.25h.5v-.25h.5v-.25H60V17h.5v-.25h.5v-.25h.5v-.25h.25V16h.5v-.25h.5v-.25h.5v-.25h.5V15h.5v-.25h.5v-.25h.5v-.25h.5V14h.5v-.25h.5v-.25h.5v-.25h.5V13h.5v-.25h.5v-.25h.5v-.25H70V12h.5v-.25h.5v-.25h.5v-.25h.5V11h.75v-.25h.5v-.25H74v-.25h.5V10h.75v-.25h.5V9.5h.75v-.25h.75V9h.5v-.25h.75V8.5h.75v-.25H80V8h.75v-.25h.75V7.5h.75v-.25H83V7h.75v-.25h1V6.5h.75v-.25h1V6h.75v-.25h1V5.5h1v-.25h1V5h1.25v-.25h1V4.5h1v-.25h1.25V4h1.5v-.25h1.5V3.5H99v-.25h1.75V3h2v-.25h2V2.5h2.5v-.25h3.5V2h13v.25H127v.25h2.75v.25h2V3h2v.25h1.5v.25h1.5v.25h1.5V4h1.25v.25h1.25v.25H142v.25h1V5h1v.25h1.25v.25h1v.25h.75V6h1v.25h.75v.25h1v.25h.75V7h1v.25h.75v.25h.75v.25h.75V8h.75v.25h.75v.25h.75v.25h.5V9h.75v.25h.75v.25h.5v.25h.75V10h.5v.25h.75v.25h.5v.25h.75V11h.5v.25h.5v.25h.75v.25h.5V12h.5v.25h.5v.25h.5v.25h.75V13h.5v.25h.5v.25h.5v.25h.5V14h.5v.25h.5v.25h.5v.25h.5V15h.5v.25h.5v.25h.5v.25h.25V16h.5v.25h.5v.25h.5v.25h.25V17h.5v.25h.5v.25h.5v.25h.25V18h.5v.25h.5v.25h.5v.25h.25V19h.5v.25h.25v.25h.5v.25h.25V20h.5v.25h.5v.25h.25v.25h.5V21h.25v.25h.5v.25h.25v.25h.5V22h.25v.25h.5v.25h.25v.25h.25V23h.5v.25h.25v.25h.5v.25h.25V24h.25v.25h.5v.25h.25v.25h.5V25h.25v.25h.25v.25h.25v.25h.5V26h.25v.25h.25v.25h.25v.25h.5V27h.25v.25h.25v.25h.5v.25h.25V28h.25v.25h.25v.25h.5v.25h.25V29h.25v.25h.25v.25h.25v.25h.25V30h.25v.25h.5v.25h.25v.25h.25V31h.25v.25h.25v.25h.25v.25h.5V32h.25v.25h.25v.25h.25v.25h.25V33h.25v.25h.25v.25h.25v.25h.25V34h.25v.25h.25v.25h.25v.25h.25V35h.25v.25h.25v.25h.25v.25h.25V36h.25v.25h.25v.25h.25v.25h.25V37h.25v.25h.25v.25h.25v.25h.25V38h.25v.25h.25v.25h.25v.25h.25V39h.25v.25h.25v.25h.25v.5h.25v.25h.25v.25h.25v.25h.25V41h.25v.25h.25v.5h.25V42h.25v.25h.25v.25h.25v.25h.25V43h.25v.25h.25v.5h.25V44h.25v.25h.25v.25h.25v.5h.25v.25h.25v.25h.25v.25h.25v.5h.25v.25h.25v.25h.25V47h.25v.5h.25v.25h.25V48h.25v.5h.25v.25h.25V49h.25v.5h.25v.25h.25v.5h.25v.25h.25v.25h.25v.5h.25v.25h.25v.5h.25v.25h.25v.5h.25V53h.25v.5h.25v.25h.25v.5h.25v.25h.25v.5h.25v.25h.25v.5h.25V56h.25v.5h.25v.5h.25v.25h.25v.5h.25v.5h.25v.25h.25v.5h.25v.5h.25v.5h.25v.25h.25v.5h.25v.5h.25v.25h.25v.5h.25v.5h.25v.5h.25v.5h.25v.5h.25v.5h.25v.5h.25v.5h.25v.5h.25v.5h.25v.5h.25v.5h.25v.5h.25v.5h.25v.5h.25v.75h.25v.5h.25v.5h.25v.5h.25v.5h.25v.75h.25v.5h.25v.75h.25v.5h.25V75h.25v.5h.25v.75h.25v.5h.25v.75h.25v.75h.25V79h.25v.75h.25v.75h.25v.75h.25V82h.25v.5h.25v1h.25v.75h.25v1h.25V86h.25v1h.25v.75h.25v1h.25v1h.25V91h.25v1h.25v1h.25v1.25h.25v1.5h.25V97h.25v1.5h.25v1.5h.25v2h.25v1.75h.25V106h.25v3.25h.25v6h.25V118h-.25v4.5H232v4.75h-.25v2.5h.5v-.25h.25v-.25h.25V129h.25v-.25h.25v-.25h.25v-.25h.25V128h.25v-5.25h.25v-13H234v-3.25h-.25V104h-.25v-2h-.25v-2H233v-1.75h-.25V97h-.25v-1.5h-.25v-1.25H232V93h-.25v-1.25h-.25v-1h-.25v-1H231V88.5h-.25v-1h-.25v-.75h-.25v-1H230V85h-.25v-1h-.25v-.75h-.25v-1H229v-.75h-.25v-.75h-.25V80h-.25v-.75H228v-.75h-.25v-.75h-.25V77h-.25v-.5H227v-.75h-.25v-.5h-.25v-.75h-.25v-.75H226v-.5h-.25v-.75h-.25V72h-.25v-.75H225v-.5h-.25v-.5h-.25v-.5h-.25v-.5H224v-.75h-.25V68h-.25v-.5h-.25V67H223v-.75h-.25v-.5h-.25v-.25h-.25V65H222v-.5h-.25V64h-.25v-.5h-.25V63H221v-.5h-.25V62h-.25v-.5h-.25V61H220v-.5h-.25v-.25h-.25v-.5h-.25v-.5H219v-.5h-.25v-.25h-.25V58h-.25v-.5H218V57h-.25v-.25h-.25v-.5h-.25v-.5H217v-.25h-.25V55h-.25v-.25h-.25v-.5H216V54h-.25v-.5h-.25V53h-.25v-.25H215v-.5h-.25V52h-.25v-.5h-.25v-.25H214v-.5h-.25v-.25h-.25v-.25h-.25v-.5H213v-.25h-.25V49h-.25v-.25h-.25v-.25H212V48h-.25v-.25h-.25v-.5h-.25V47H211v-.25h-.25v-.5h-.25V46h-.25v-.25H210v-.25h-.25V45h-.25v-.25h-.25v-.25H209V44h-.25v-.25h-.25v-.25h-.25v-.25H208v-.5h-.25v-.25h-.25v-.25h-.25V42H207v-.25h-.25v-.25h-.25V41h-.25v-.25H206v-.25h-.25v-.25h-.25V40h-.25v-.25H205v-.5h-.25V39h-.25v-.25h-.25v-.25H204v-.25h-.25V38h-.25v-.25h-.25v-.25H203v-.25h-.25V37h-.25v-.25h-.25v-.25H202V36h-.25v-.25h-.25v-.25h-.25v-.25H201V35h-.25v-.25h-.25v-.25h-.25v-.25H200V34h-.25v-.25h-.25v-.25h-.25v-.25H199V33h-.25v-.25h-.25v-.25h-.25v-.25h-.5V32h-.25v-.25h-.25v-.25H197v-.25h-.25V31h-.25v-.25h-.25v-.25H196v-.25h-.25V30h-.25v-.25h-.25v-.25H195v-.25h-.5V29h-.25v-.25H194v-.25h-.25v-.25h-.25V28h-.25v-.25h-.5v-.25h-.25v-.25h-.25V27H192v-.25h-.25v-.25h-.25v-.25h-.5V26h-.25v-.25h-.25v-.25h-.5v-.25h-.25V25h-.25v-.25h-.25v-.25h-.5v-.25h-.25V24h-.25v-.25H188v-.25h-.5v-.25h-.25V23H187v-.25h-.5v-.25h-.25v-.25h-.5V22h-.25v-.25h-.5v-.25h-.25v-.25h-.25V21h-.5v-.25h-.25v-.25h-.5v-.25H183V20h-.25v-.25h-.5v-.25h-.5v-.25h-.25V19h-.5v-.25h-.25v-.25h-.5v-.25H180V18h-.5v-.25h-.25v-.25h-.5v-.25h-.5V17H178v-.25h-.5v-.25h-.5v-.25h-.25V16h-.5v-.25h-.5v-.25h-.5v-.25H175V15h-.5v-.25h-.5v-.25h-.5v-.25h-.25V14h-.5v-.25h-.5v-.25h-.5v-.25h-.5V13h-.5v-.25h-.5v-.25h-.5v-.25h-.5V12h-.5v-.25h-.5v-.25h-.5v-.25h-.5V11h-.5v-.25H166v-.25h-.5v-.25h-.5V10h-.5v-.25h-.5V9.5h-.75v-.25h-.5V9h-.5v-.25h-.75V8.5h-.5v-.25h-.75V8h-.75v-.25h-.5V7.5h-.75v-.25h-.5V7H157v-.25h-.75V6.5h-.75v-.25h-.75V6H154v-.25h-.75V5.5h-.75v-.25h-.75V5H151v-.25h-1V4.5h-.75v-.25h-1V4h-.75v-.25h-1V3.5h-1v-.25h-1.25V3h-1v-.25h-1V2.5H141v-.25h-1.25V2h-1.5v-.25H137V1.5h-1.5v-.25h-1.75V1h-2V.75h-2V.5h-3V.25h-3.25V0H111Z" style="fill:#fff;fill-rule:nonzero;stroke:none;stroke-width:1;stroke-linecap:butt;stroke-linejoin:miter;stroke-dasharray:none" transform="translate(11.5 11.75)"/><path d="m10.055 15.535-2.344-1.273L0 2.343V0l10.055 15.535" style="fill:#161413;fill-rule:evenodd;stroke:none;stroke-width:1;stroke-linecap:butt;stroke-linejoin:miter;stroke-dasharray:none" transform="translate(128.743 114.557)"/><path d="M18.233 1.274 15.882 0H.687L0 1.274h18.233" style="fill:#161413;fill-rule:nonzero;stroke:none;stroke-width:1;stroke-linecap:butt;stroke-linejoin:miter;stroke-dasharray:none" transform="translate(144.56 140.166)"/></svg>