


<svg version="1.1" id="레이어_1" xmlns="http://www.w3.org/2000/svg" xmlns:xlink="http://www.w3.org/1999/xlink" x="0px" y="0px" width="1000px" height="150px" viewBox="0 0 1000 150" enable-background="new 0 0 1000 150" xml:space="preserve">
<g>
	<path d="M526.339,122.34c0,3.992-1.763,6.887-7.219,6.887h-34.833c-4.491,0-7.053-1.297-7.053-5.456
		c0-4.158,1.763-6.221,7.053-6.221h42.052V122.34z M679.939,105.707v-4.492c0-4.158,1.763-6.887,7.385-6.887h34.832
		c4.79,0,7.187,1.431,7.187,5.922c0,3.826-1.897,5.589-6.854,5.589L679.939,105.707z M771.393,74.867v73.522h35.231V94.994h28.744
		c9.781,0,14.737,3.061,14.737,12.476v41.086h35.165v-43.98c0-20.627-11.378-29.575-43.482-29.575L771.393,74.867z M684.896,74.867
		c-28.312,0-39.655,9.414-39.655,30.673v14.571c0,18.364,11.344,28.278,36.928,28.278h74.354v-19.196h-67.469
		c-6.653,0-8.949-1.93-8.949-6.887v-3.027h53.23c18.363,0,28.743-5.755,28.743-19.495v-3.326c0-12.476-6.222-21.425-37.394-21.425
		L684.896,74.867z M571.783,148.39h35.165v-48.14c0-3.327,1.297-5.289,5.623-5.289h27.18V75H600.66
		c-20.959,0-28.943,7.817-28.943,20.925L571.783,148.39z M451.584,74.867v19.361h66.039c6.653,0,8.815,2.263,8.815,7.053v2.828
		h-53.03c-22.223,0-28.91,9.148-28.91,20.793v2.86c0,16.169,12.941,20.627,38.359,20.627h39.023
		c27.646,0,39.623-6.222,39.623-27.979v-16.967c0-18.397-11.345-28.444-37.062-28.444L451.584,74.867z M241.13,115.92
		c0,23.287,11.81,32.603,42.351,32.603h67.002v-19.961h-61.879c-7.352,0-12.309-3.327-12.309-13.905V108.4
		c0-9.447,4.625-13.307,12.144-13.307h62.044V75.133h-67.967c-29.941,0-41.386,12.609-41.386,32.769V115.92z M360.896,63.323v85.199
		h76.517v-19.961H396.16V63.323H360.896z M141.325,110.963v-47.64h-19.961c-12.309,0-19.329,4.924-26.615,10.712L1,148.522h42.35
		l62.378-50.501v50.501h29.243l60.415-50.833v50.833h35.83V63.323h-19.528c-10.546,0-17.898,4.324-25.25,10.379L141.325,110.963z"></path>
	<path fill="#FF8000" d="M969.838,1.444c-19.628,0-47.273,5.854-77.248,16.833c-26.802,9.744-52.458,22.384-76.518,37.692
		c23.077-8.48,47.411-13.035,71.993-13.473c34.398,0,58.885,13.308,22.722,59.316C1017.245,31.95,1014.483,1.61,969.838,1.61"></path>
</g>
</svg>
