<svg xmlns="http://www.w3.org/2000/svg" xmlns:xlink="http://www.w3.org/1999/xlink" width="338" height="296" version="1.2" viewBox="0 0 253.5 222"><defs><clipPath id="a"><path d="M368.66 532h89.848v12.816H368.66z"/></clipPath></defs><g clip-path="url(#a)" transform="translate(-1028.4 -1300.9) scale(2.7941)"><path d="M379.58 544.13c1.04-.46 1.809-1.152 2.313-2.074.503-.922.757-2.078.757-3.457 0-1.383-.254-2.535-.758-3.461-.503-.922-1.273-1.613-2.312-2.07-1.035-.461-2.352-.688-3.945-.688s-2.903.227-3.926.688c-1.023.457-1.79 1.148-2.293 2.07-.504.926-.758 2.078-.758 3.46 0 1.38.254 2.536.758 3.458.504.922 1.27 1.613 2.293 2.074 1.023.457 2.336.688 3.945.688 1.582 0 2.89-.231 3.926-.688m-6.375-2.144c-.598-.266-1.027-.676-1.285-1.235-.262-.559-.39-1.27-.39-2.133 0-.879.124-1.594.378-2.144s.676-.965 1.277-1.246c.598-.278 1.414-.418 2.45-.418 1.062 0 1.89.133 2.48.398.594.266 1.016.68 1.266 1.238.254.56.379 1.274.379 2.153 0 .89-.125 1.605-.38 2.152-.25.543-.679.953-1.285 1.227-.605.27-1.425.406-2.46.406-1.024 0-1.832-.133-2.43-.398m23.496-9.387v11.996h2.73v-3.707h4.106c1.582 0 2.765-.32 3.547-.965.785-.644 1.18-1.7 1.18-3.16 0-1.047-.18-1.875-.532-2.48-.351-.606-.87-1.036-1.554-1.298-.684-.257-1.563-.386-2.641-.386zm2.73 6v-3.73h3.946c.574 0 1.02.07 1.336.21.32.14.543.344.668.61.125.265.191.601.191 1.015 0 .68-.176 1.164-.52 1.453-.347.293-.902.442-1.675.442zm22.504 5.996h10.32v-2.371h-7.593v-2.59h6.835v-2.21h-6.835v-2.454h7.554V532.6h-10.28zm36.57 0v-2.45h-7.254V532.6h-2.73v11.996z"/></g><path d="M125.759 143.845c-37.01 0-67.123-30.112-67.123-67.122 0-1.91.098-3.799.262-5.665l56.111 3.504-24.284 16.786c-.328.23-.546.611-.546 1.037 0 .698.567 1.277 1.266 1.277h99.277c-7.53 28.835-33.803 50.185-64.963 50.185m0-134.248c37.022 0 67.123 30.112 67.123 67.122 0 1.9-.098 3.777-.251 5.632h-.033l-56.11-3.57 24.35-16.687c.338-.23.545-.611.545-1.037a1.27 1.27 0 0 0-1.266-1.277h-99.31c7.52-28.835 33.791-50.185 64.95-50.185M221.99 84.22l-18.369-1.168-2.215-.142c.164-2.04.273-4.104.273-6.188 0-41.856-34.055-75.91-75.922-75.91-36.038 0-66.262 25.245-73.987 58.97H34.993c-.95 0-1.79.447-2.325 1.145l-4.29 5.927c-.195.25-.316.568-.316.906 0 .808.655 1.462 1.474 1.462l18.293 1.136 2.292.152a77.867 77.867 0 0 0-.273 6.21c0 41.856 34.054 75.922 75.91 75.922 36.038 0 66.273-25.256 73.988-58.98h16.786c.95 0 1.79-.448 2.325-1.147l4.29-5.926c.196-.251.305-.568.305-.906 0-.808-.655-1.463-1.462-1.463"/><g transform="translate(-368.66 -465.88)"><use xlink:href="#b" width="100%" height="100%" x="82.757" y="147.23"/><use xlink:href="#c" width="100%" height="100%" x="253.669" y="147.23"/><use xlink:href="#d" width="100%" height="100%" x="136.042" y="113.518"/></g></svg>