<svg xmlns="http://www.w3.org/2000/svg" viewBox="0 0 78.6 54.233"><path d="M50.86 14.361c12.2 2.655 20.723 8.709 20.723 15.754 0 9.493-15.479 17.188-34.573 17.188-2.826 0-5.572-.168-8.2-.486l-3.721 6.997a91.26 91.26 0 0 0 8.62.404c24.78 0 44.868-9.797 44.868-21.883 0-8.921-10.943-16.594-26.639-20.002l-1.078 2.028zm-1.075 2.021-1.072 2.016c6.876 1.602 11.595 4.901 11.595 8.711 0 5.381-9.411 9.744-21.02 9.744a44.68 44.68 0 0 1-5.031-.281l-3.497 6.577c2.157.25 4.408.383 6.721.383 16.057 0 29.073-6.377 29.073-14.242 0-5.712-6.862-10.638-16.769-12.908M27.717 39.858c-12.2-2.655-20.724-8.71-20.724-15.754 0-9.493 15.48-17.189 34.574-17.189 2.825 0 5.572.169 8.2.487L53.488.404A91.266 91.266 0 0 0 44.867 0C20.088 0 0 9.798 0 21.884c0 8.92 10.943 16.594 26.639 20.002l1.078-2.028zM12.022 24.929c0-7.866 13.017-14.242 29.074-14.242 2.313 0 4.563.132 6.721.382l-3.497 6.578a44.451 44.451 0 0 0-5.032-.281c-11.608 0-21.019 4.362-21.019 9.743 0 3.811 4.719 7.11 11.594 8.712l-1.071 2.015c-9.907-2.27-16.77-7.196-16.77-12.907"/></svg>