
<svg xmlns="http://www.w3.org/2000/svg" version="1.1" width="574.46375pt" height="225pt" viewBox="0 0 574.46375 225" id="svg1142">
  
  <defs id="defs1146">
    <clipPath id="cp2">
      <path transform="matrix(1,0,0,-1,0,841.89)" d="M 0,0 H 595.276 V 841.89 H 0 Z" id="path222"></path>
    </clipPath>
    <clipPath id="cp3">
      <path transform="matrix(1,0,0,-1,0,841.89)" d="M 167.261,98.124 H 457.49403 V 518.22006 H 167.261 Z" id="path371"></path>
    </clipPath>
  </defs>
  
  <path d="m 454.26052,73.079926 c -2.59144,14.46419 -6.07639,28.215624 -14.01617,47.651404 -10.39375,26.01875 -21.88467,40.02728 -33.76506,50.61451 -23.49859,18.59573 -59.27469,21.63265 -99.74746,24.21136 -10.18501,0.45312 -19.2245,0.45821 -19.4867,0.45821 h -0.0102 -0.0127 c -0.26474,0 -9.30168,-0.005 -19.49179,-0.45821 -40.47786,-2.57871 -76.23868,-5.61563 -99.74491,-24.21136 -11.8804,-10.58723 -23.3764,-24.59576 -33.77016,-50.61451 -7.94232,-19.43578 -11.42473,-33.187214 -14.00344,-47.651404 -1.68774,-10.52104 -4.96904,-27.115919 24.59576,-29.501159 9.03694,-1.09971 52.35825,-4.269 68.83348,-4.20027 6.5066,-0.12728 18.3259,1.55283 22.13923,17.564759 2.06195,6.57787 4.28937,24.60339 4.38355,25.43071 0.90879,8.13834 5.10142,49.784644 5.29489,90.786894 0.64404,3.86679 2.91473,4.90795 6.0662,5.61563 12.59572,2.51253 35.70992,2.97328 35.70992,2.97328 0,0 23.10657,-0.46075 35.69973,-2.97328 3.16166,-0.70768 5.41708,-1.74884 6.06875,-5.61563 0.20365,-41.00225 4.39628,-82.648554 5.29743,-90.786894 0.0891,-0.82732 2.32161,-18.85284 4.3861,-25.43071 3.81334,-16.011929 15.625,-17.692039 22.14687,-17.564759 16.47269,-0.0687 59.78636,3.10056 68.82585,4.20027 29.56988,2.38524 26.27586,18.980119 24.60084,29.501159 M 560.85824,28.470527 c -8.11797,-4.46246 -15.709,-7.40265 -23.97207,-9.55624 -10.48794,-3.06493 -41.63102,-7.84814 -53.0863,-9.1133102 -33.09048,-4.11117 -115.84849,-8.98348003 -127.99108,-9.04458003 -3.47222,-0.19092 -28.61273,-0.90878 -34.48547,-0.54476 -0.0509,0 -0.10183,0.008 -0.14765,0.0127 -17.20073,0.0407 -31.00052,13.99835023 -31.00052,31.21181023 0,1.0437 -0.0713,2.07468 0.0229,3.09547 -0.14256,36.163029 0.028,108.137813 0.0662,123.429333 0,1.2499 -2.15613,1.36191 -3.02928,1.35427 -0.88588,0.008 -3.03438,-0.10437 -3.02674,-1.35427 0.0356,-15.42898 0.20874,-88.765664 0.0611,-124.391583 0.0407,-0.70768 0,-1.41027 0,-2.13322 0,-17.17273 -13.7667,-31.14563023 -30.91907,-31.25000023 -0.0764,-0.003 -0.17819,-0.0204 -0.25456,-0.028 -6.2444,-0.5244 -30.97252,0.4073 -34.43456,0.59822 -12.15023,0.0611 -94.90315,4.93341003 -127.993632,9.04458003 -11.45527,1.2651702 -42.60345,6.0483802 -53.09139,9.1133102 -8.255433,2.15359 -15.849013,5.09378 -23.964443,9.55624 -14.04926014,8.16125 -14.01107014,20.74678 -13.42813014,30.224119 0.47094,7.73867 2.17651004,17.4222 3.50786004,22.82909 0.57277,2.33688 7.0106301,29.434974 14.6653001,46.839354 5.21852,11.85749 13.12521,23.53932 17.272023,27.70904 9.23549,9.92027 26.43114,19.13032 36.59833,23.49096 5.86001,2.53034 13.85834,5.79637 21.4061,8.69073 2.64998,1.00807 8.716192,3.27112 17.720042,6.43278 13.91943,4.80867 54.43802,17.97206 101.99269,24.92668 36.95727,5.41198 70.0452,5.40689 73.93999,5.38398 3.89225,0.0229 36.8809,0.028 73.82799,-5.38398 47.55721,-6.95462 88.0758,-20.11801 102.00033,-24.92668 8.99621,-3.16166 15.07514,-5.42471 17.71495,-6.43278 7.5503,-2.89436 15.54608,-6.16039 21.41882,-8.69073 10.15446,-4.36064 27.3552,-13.57069 36.5907,-23.49096 4.14681,-4.16972 12.04586,-15.85155 17.26692,-27.70904 7.6674,-17.40438 14.08999,-44.502474 14.67039,-46.839354 1.32372,-5.40689 3.02928,-15.09042 3.50531,-22.82909 0.5804,-9.477339 0.61859,-22.062869 -13.42304,-30.224119" fill="#1568b3" id="path374" style="stroke-width:2.54562"></path>
</svg>
